<svg xmlns="http://www.w3.org/2000/svg" width="230" height="44" viewBox="0 0 230 44">
  <g id="Layer_2" data-name="Layer 2" transform="translate(0.012 0.046)">
    <g id="Layer_1" data-name="Layer 1" transform="translate(-0.012 -0.046)">
      <path id="Path_79" data-name="Path 79" d="M58.111,4H32.03A2.054,2.054,0,0,0,30,6.038v38l1.078.562a2.015,2.015,0,0,0,2.959-1.78V8.029H56.1V44.176l1.249.515a2.01,2.01,0,0,0,2.78-1.866V6.038A2.054,2.054,0,0,0,58.111,4Z" transform="translate(-6.565 -0.841)" fill="#444"/>
      <path id="Path_80" data-name="Path 80" d="M55.411,46.589v4.357l-17.031-7V39.6Z" transform="translate(-8.401 -8.642)" fill="#444"/>
      <path id="Path_81" data-name="Path 81" d="M20.893,39.477H10.2l10.69,5.583v4.552L1.075,39.243a2.015,2.015,0,0,1,.937-3.8H20.893Z" transform="translate(0.012 -7.73)" fill="#444"/>
      <path id="Path_82" data-name="Path 82" d="M100.77,18.382a6.637,6.637,0,0,0-3.8.609A7.52,7.52,0,0,0,94.3,21.42l-.492-.094-.469-.094a1.71,1.71,0,0,0-.086.265.633.633,0,0,0,0,.2l.062,4.459.18,6.786a12.787,12.787,0,0,0,.141,1.374,3.241,3.241,0,0,0,.515,1.288.367.367,0,0,1,0,.172,1.757,1.757,0,0,0,0,.32c-.289-.18-.547-.351-.781-.508s-.445-.312-.672-.484a.937.937,0,0,1-.242-.258,1.054,1.054,0,0,0-.219-.234,3.358,3.358,0,0,1-1.46-1.734,7.246,7.246,0,0,1-.4-2.233c-.047-1.484-.078-2.967-.094-4.443s-.055-2.952-.094-4.443a11.984,11.984,0,0,0-.047-1.3c-.047-.429,0-.9-.047-1.4-.718.109-1.406.234-2.046.39a5.778,5.778,0,0,0-1.819.781.6.6,0,0,0-.25.312,3.789,3.789,0,0,0-.156.4,6.053,6.053,0,0,0-.078.726c0,.242,0,.484,0,.734,0,1.96,0,3.9.062,5.849s.055,3.9.094,5.825a2.874,2.874,0,0,0,.234,1.015,9.324,9.324,0,0,1,.351,1.085,2.108,2.108,0,0,0-.336-.094.531.531,0,0,1-.312-.148l-1.3-1.117a8.817,8.817,0,0,1-1.171-1.242,2.069,2.069,0,0,1-.406-.992c-.062-.39-.1-.781-.125-1.117-.062-1.171-.094-2.343-.109-3.5s0-2.343-.07-3.5a2.709,2.709,0,0,0,0-.336,4.4,4.4,0,0,0-.07-.5,2.9,2.9,0,0,0-.867,2.233,3.85,3.85,0,0,1-1.491-.976c-.39-.422-.781-.828-1.2-1.226a1.3,1.3,0,0,1-.453-.96,2.116,2.116,0,0,1,.3-1.109,10.714,10.714,0,0,1,1.374-1.937,16.4,16.4,0,0,1,1.718-1.655,2.444,2.444,0,0,0,.672-.781,2.406,2.406,0,0,0,.18-.976,18.413,18.413,0,0,1,.094-1.862c.062-.621.117-1.269.156-1.948a7.809,7.809,0,0,1,3.123,3.467,3.272,3.272,0,0,1,.554-.078,2.717,2.717,0,0,0,.523-.078,2.343,2.343,0,0,1,1.609,0,3.9,3.9,0,0,1,1.335.9c.2.211.4.429.586.664s.4.492.625.781c.226-.211.406-.375.554-.5l.406-.367a5.466,5.466,0,0,1,1.687-1.117,6.247,6.247,0,0,1,1.929-.5,6.067,6.067,0,0,1,1.983.141,6.794,6.794,0,0,1,1.89.781,11.6,11.6,0,0,1,1.765,1.257,8.207,8.207,0,0,1,1.429,1.562,3.9,3.9,0,0,1,.476.929,3.31,3.31,0,0,1,.172,1.054c0,1.343,0,2.671,0,3.99V38.451a4.689,4.689,0,0,0,.047.664,3.363,3.363,0,0,0,.109.664,4.318,4.318,0,0,0,1.359,2.663,4.4,4.4,0,0,0,2.881.836h.711a3.9,3.9,0,0,0,.781-.062,6.427,6.427,0,0,0,1.655-.336,3.9,3.9,0,0,0,1.445-.929,1.258,1.258,0,0,1,.25-.25,2.037,2.037,0,0,0,.242-.219c.312-.265.609-.531.9-.781a4.771,4.771,0,0,0,.781-.882,3.334,3.334,0,0,0,.484-1.07,3.4,3.4,0,0,0,0-1.359,7.4,7.4,0,0,1,1.8,1.327,6.888,6.888,0,0,1,1.171,1.648,1.71,1.71,0,0,1,.156,1.249,3.335,3.335,0,0,1-.523,1.163,11.573,11.573,0,0,1-2.155,2.272,7.278,7.278,0,0,1-2.491,1.3,7.129,7.129,0,0,1-2.8.219,9.527,9.527,0,0,1-3.077-.976,12.822,12.822,0,0,1-4-2.959,10.706,10.706,0,0,1-2.343-4.412,12.446,12.446,0,0,1-.39-2.124c-.07-.726-.109-1.46-.109-2.179,0-1.609,0-3.225.078-4.834s.094-3.217.109-4.826v-5.88Z" transform="translate(-17.313 -2.69)" fill="#444"/>
      <path id="Path_83" data-name="Path 83" d="M121.194,21.858a1.562,1.562,0,0,1-.3-.984,2.14,2.14,0,0,1,.359-1.085c.125.1.422.367.882.781s1.015.945,1.655,1.562,1.327,1.343,2.061,2.14a30.907,30.907,0,0,1,2.061,2.475,22.8,22.8,0,0,1,1.671,2.6,7.808,7.808,0,0,1,.9,2.475,3.209,3.209,0,0,1-2.14,3.7,9.73,9.73,0,0,1-3.483.679c-1.327.047-2.85.055-4.568,0h-.976a6.411,6.411,0,0,1-1.359-.211,5.825,5.825,0,0,1-1.445-.593,3.178,3.178,0,0,1-1.171-1.171,4.685,4.685,0,0,1-.578-1.983,8.9,8.9,0,0,1,.359-2.975,9.55,9.55,0,0,1,.929-2.522,12.072,12.072,0,0,1,1.515-2.233,11.839,11.839,0,0,1,1.812-1.7A6.59,6.59,0,0,1,121.194,21.858Zm-2.569-8.668,1.085,1.085c.289.289.57.586.851.9l.664.742c-.187.211-.4.437-.648.695l-.781.781-.687.718a5.289,5.289,0,0,1-.461.445,2.568,2.568,0,0,1-.375-.367c-.2-.226-.437-.484-.711-.781s-.523-.562-.781-.851a4.294,4.294,0,0,1-.523-.711,5.777,5.777,0,0,1,.523-.679q.375-.437.781-.867c.367-.344.711-.718,1.078-1.109ZM118.1,32.946a17.96,17.96,0,0,0,2.257.172c.781,0,1.491,0,2.186-.062s1.32-.133,1.882-.234a9.988,9.988,0,0,0,1.382-.336,2.124,2.124,0,0,0,.929-.578,1.562,1.562,0,0,0,.461-.945,2.233,2.233,0,0,0-.3-1.249,14.838,14.838,0,0,0-.882-1.562c-.344-.515-.679-.976-1.007-1.374a6.155,6.155,0,0,0-.679-.781c-.211-.187-.383-.328-.515-.437a.781.781,0,0,0-.414-.164.937.937,0,0,0-.453.07,4.014,4.014,0,0,0-.57.312,10.885,10.885,0,0,0-3.069,3.053,7.153,7.153,0,0,0-1.187,4.115Zm6.747-19.756,1.085,1.085c.289.289.57.586.851.9l.664.742-.632.695-.726.781c-.25.265-.484.5-.7.718a6.1,6.1,0,0,1-.476.445,2.57,2.57,0,0,1-.375-.367l-.695-.781c-.258-.273-.508-.562-.781-.851a6.311,6.311,0,0,1-.554-.711,5.779,5.779,0,0,1,.523-.679q.375-.437.781-.867c.344-.344.687-.718,1.054-1.109Z" transform="translate(-25.274 -2.855)" fill="#444"/>
      <path id="Path_84" data-name="Path 84" d="M150.749,23.215a11.822,11.822,0,0,1,3.014-.094,6.7,6.7,0,0,1,2.186.6,4.888,4.888,0,0,1,1.468,1.1,5.724,5.724,0,0,1,.9,1.335,4.818,4.818,0,0,1,.437,1.343,5.575,5.575,0,0,1,.078,1.132c0,1.382,0,2.5,0,3.342s.039,1.562.062,2.249,0,1.3.062,1.929.047,1.437.094,2.389l-.781-.156c-.367-.086-.781-.18-1.14-.3a5.661,5.661,0,0,1-1.039-.4c-.3-.156-.453-.336-.453-.547,0-1.32-.078-2.343-.109-3.123s-.055-1.382-.07-1.843-.039-.836-.047-1.117,0-.586,0-.929V28.806c0-.547,0-1.327-.047-2.343a5.771,5.771,0,0,0-1.491.109,6.083,6.083,0,0,0-1.9.695,5.4,5.4,0,0,0-1.648,1.429,3.35,3.35,0,0,0-.632,2.257v7.153a3.435,3.435,0,0,1-1.023-.383,4.053,4.053,0,0,1-1.7-1.874,3.264,3.264,0,0,1-.281-1.367c0-.781,0-1.562-.047-2.428s0-1.655,0-2.4V26.775a2.475,2.475,0,0,1-.679-.125,9.216,9.216,0,0,0-.953-.2,6.013,6.013,0,0,0-1.062-.047,1.937,1.937,0,0,0-.984.344,2.178,2.178,0,0,0-.726.929,4.466,4.466,0,0,0-.273,1.734v2.866c0,1.062,0,2.069.047,3.03s0,1.78,0,2.468v1.14a3.475,3.475,0,0,1-1.078-.258,4.138,4.138,0,0,1-1.085-.64A3.616,3.616,0,0,1,139,37.02a2.929,2.929,0,0,1-.375-1.359V21.2a4.576,4.576,0,0,1,1.023.484,5.536,5.536,0,0,1,.867.664,10.07,10.07,0,0,1,.781.781c.242.265.469.515.7.742a4.474,4.474,0,0,1,3.03-.273,7.582,7.582,0,0,1,2.725,1.484,7.856,7.856,0,0,1,1.335-1.179A4.3,4.3,0,0,1,150.749,23.215Zm8.332,15.328h0Z" transform="translate(-30.537 -4.61)" fill="#444"/>
      <path id="Path_85" data-name="Path 85" d="M170.9,20.09l1.078,1.085c.289.289.578.586.867.9l.687.742-.656.679a8.189,8.189,0,0,1-.781.781,7.93,7.93,0,0,0-.679.7,5.094,5.094,0,0,1-.469.445,2.685,2.685,0,0,1-.367-.351l-.711-.781c-.273-.273-.531-.562-.781-.851a4.809,4.809,0,0,1-.523-.711,7.186,7.186,0,0,1,.515-.695,8.915,8.915,0,0,1,.781-.882C170.163,20.863,170.53,20.465,170.9,20.09Zm1.359,14.368a10.385,10.385,0,0,0,1.749,0,1.772,1.772,0,0,0,.976-.375,1.655,1.655,0,0,0,.492-.851c.109-.367.219-.867.344-1.484a3.9,3.9,0,0,1,1.952,1.445,4.037,4.037,0,0,1,.664,1.835,3.123,3.123,0,0,1-.265,1.648,1.406,1.406,0,0,1-.836.836,18.194,18.194,0,0,1-4.3.383,9.371,9.371,0,0,1-2.3-.351,1.726,1.726,0,0,1-1.288-1.124,7.286,7.286,0,0,1-.25-1.921V31.428c-.039-1.3-.055-2.428-.039-3.4a14.162,14.162,0,0,1,.07-1.89c.6.476,1.156.937,1.655,1.382a5.466,5.466,0,0,1,1.226,1.562,1.132,1.132,0,0,1,.172.554c0,.211,0,.414,0,.625V34.5Z" transform="translate(-37.125 -4.367)" fill="#444"/>
      <path id="Path_86" data-name="Path 86" d="M187.847,37.178a1.429,1.429,0,0,1-.4.781,1.374,1.374,0,0,1-.679.32,3.248,3.248,0,0,1-.882.047,5.8,5.8,0,0,1-1.007-.094c0-.164,0-.64.047-1.437s0-1.757,0-2.881V22.31a5.372,5.372,0,0,1,1.187.125,2.7,2.7,0,0,1,1.023.453,2.069,2.069,0,0,1,.711.914,3.631,3.631,0,0,1,.265,1.515,9.784,9.784,0,0,1,3.826-1.3,5.9,5.9,0,0,1,2.741.344,3.631,3.631,0,0,1,1.624,1.281,2.787,2.787,0,0,1,.539,1.476q.164,4,.187,6.731t0,4.724a2.71,2.71,0,0,1-1.671-.664,3,3,0,0,1-.9-1.687c-.039-1.031-.062-2.038-.062-3.006V27.175a4.3,4.3,0,0,0-1.671,0,4.552,4.552,0,0,0-1.78.679,2.8,2.8,0,0,0-1.117,1.374,2.491,2.491,0,0,0,.328,2.077,3.334,3.334,0,0,1-1.21-.445,2.8,2.8,0,0,1-.781-.82v4.654a8.679,8.679,0,0,1-.078,1.46A6.116,6.116,0,0,1,187.847,37.178Z" transform="translate(-40.72 -4.853)" fill="#444"/>
      <path id="Path_87" data-name="Path 87" d="M210.326,30.924a12.5,12.5,0,0,0-1.562,1.3,3.709,3.709,0,0,0-1.023,1.562,5.6,5.6,0,0,0,1.327.2c.687.055,1.476.1,2.343.141s1.858.07,2.874.078,1.983,0,2.881,0,1.687-.047,2.343-.094a5.349,5.349,0,0,0,1.312-.18c-.992-.7-1.866-1.343-2.632-1.921s-1.562-1.249-2.491-2a33.316,33.316,0,0,1-2.538-2.343A19.349,19.349,0,0,1,211.1,25.2a5.466,5.466,0,0,1-1.023-2.343,1.8,1.8,0,0,1,.265-1.242,2.218,2.218,0,0,1,1.195-.679c1.937-.414,3.569-.781,4.888-1.21a30.9,30.9,0,0,0,3.248-1.124,11.143,11.143,0,0,0,1.952-1.023,3.74,3.74,0,0,0,.96-.9,1.6,1.6,0,0,0,.3-.781,5.506,5.506,0,0,0,0-.64,5.107,5.107,0,0,1,1.054,1.195,5.786,5.786,0,0,1,.781,1.687,3.819,3.819,0,0,1,.078,1.749,2.194,2.194,0,0,1-1.031,1.413,25.764,25.764,0,0,1-2.444,1.015c-.914.336-1.827.64-2.756.914s-1.819.531-2.663.781l-2.14.539a8.8,8.8,0,0,0,1.413,1.406c.648.554,1.382,1.14,2.194,1.78s1.671,1.3,2.569,1.983,1.734,1.351,2.491,2.015a24.907,24.907,0,0,1,1.983,1.89,4.255,4.255,0,0,1,1.039,1.562.96.96,0,0,1-.375,1.117,4.013,4.013,0,0,1-2.21.461h-12.2a12.916,12.916,0,0,1-3.5-.492,5.56,5.56,0,0,1-2.108-1.117,2.764,2.764,0,0,1-.914-1.562,3.9,3.9,0,0,1,.062-1.765,5.718,5.718,0,0,1,.82-1.765,8.73,8.73,0,0,1,1.359-1.562.843.843,0,0,1,.976-.172,3.756,3.756,0,0,1,1.023.726q.515.492,1.007,1.054A4.825,4.825,0,0,0,210.326,30.924Z" transform="translate(-44.96 -3.308)" fill="#444"/>
      <path id="Path_88" data-name="Path 88" d="M248.06,33.622a7.505,7.505,0,0,0,.234,1.523c.133.515.273,1.1.414,1.765l-2.9-2.483a9.651,9.651,0,0,1-3.748,1.648,7.574,7.574,0,0,1-4.014,0,4.935,4.935,0,0,1-3.545-4.045,5.576,5.576,0,0,1,.125-2.491,5.95,5.95,0,0,1,2.264-3.225c.266-.18.633-.414,1.093-.695s.976-.578,1.562-.914,1.1-.679,1.671-1.046a16.941,16.941,0,0,0,1.562-1.132,6.8,6.8,0,0,0,1.1-1.148,1.921,1.921,0,0,0,.414-1.1,4.451,4.451,0,0,1,1.32.562,5.208,5.208,0,0,1,1.179.96,6.248,6.248,0,0,1,.851,1.187,2.64,2.64,0,0,1,.336,1.257c.039,1.562.07,3.123.078,4.685S248.021,32.052,248.06,33.622Zm-9.37-14.836a2.389,2.389,0,0,1-.375-.359l-.711-.742c-.273-.273-.531-.562-.781-.851a4.436,4.436,0,0,1-.531-.711,7.185,7.185,0,0,1,.515-.695,11.337,11.337,0,0,1,.781-.882c.3-.351.648-.711,1.023-1.085l1.078,1.054c.289.289.578.586.851.9s.508.57.672.781c-.187.187-.4.414-.64.679s-.476.531-.726.781l-.679.695a4.609,4.609,0,0,1-.453.414Zm4.857,12.666a2.991,2.991,0,0,0,.632-1.242,9.743,9.743,0,0,0,.328-1.734,16.4,16.4,0,0,0,.078-1.858,15.256,15.256,0,0,0-.047-1.562c-.328.226-.781.492-1.257.781s-1.031.664-1.562,1.054-1.085.82-1.624,1.281a9.666,9.666,0,0,0-1.406,1.491,6.051,6.051,0,0,0-.914,1.624,3.171,3.171,0,0,0-.156,1.7,3.9,3.9,0,0,0,1.515.219,7.512,7.512,0,0,0,1.655-.25,7.2,7.2,0,0,0,1.562-.6,4.606,4.606,0,0,0,1.218-.929Zm1.242-12.666a2.391,2.391,0,0,1-.375-.359l-.711-.742c-.265-.273-.531-.562-.781-.851a4.974,4.974,0,0,1-.531-.711c.109-.164.273-.4.515-.695a11.508,11.508,0,0,1,.781-.882c.289-.289.648-.711,1.023-1.085.367.351.734.7,1.085,1.054s.578.586.867.9.515.57.679.781c-.187.187-.406.414-.648.679a10.52,10.52,0,0,1-.781.781l-.679.695a4.605,4.605,0,0,1-.422.414Z" transform="translate(-51.684 -2.914)" fill="#444"/>
      <path id="Path_89" data-name="Path 89" d="M269.149,31.762a3.693,3.693,0,0,1-.9-.3,5.171,5.171,0,0,1-.781-.5,3.491,3.491,0,0,1-.648-.617,2.428,2.428,0,0,1-.406-.648c.039-.148.094-.39.172-.734a6.872,6.872,0,0,0,.125-1.14,7.487,7.487,0,0,0-.094-1.3,2.624,2.624,0,0,0-.515-1.187,6.965,6.965,0,0,0-1.515.1,3.927,3.927,0,0,0-2.46,1.507,4.57,4.57,0,0,0-.781,1.562,1.991,1.991,0,0,0,.117,1.3c.187.39.344.695.469.921a2.28,2.28,0,0,1-1.257-.32,4.849,4.849,0,0,1-1.007-.914v8.6a4.022,4.022,0,0,1-2.1-1.007,3.631,3.631,0,0,1-.781-1.109,3.592,3.592,0,0,1-.328-1.6V25.046c0-1.085,0-2.382.047-3.826a3.9,3.9,0,0,1,1.671,1.023,5.591,5.591,0,0,1,1.023,1.89,8.457,8.457,0,0,1,1.437-1.023,8.153,8.153,0,0,1,2-.836,5.661,5.661,0,0,1,2.85,0,4.4,4.4,0,0,1,1.952,1.163,5.419,5.419,0,0,1,1.156,1.905,11.35,11.35,0,0,1,.593,2.3,14.256,14.256,0,0,1,.141,2.272A11.105,11.105,0,0,1,269.149,31.762Z" transform="translate(-56.515 -4.614)" fill="#444"/>
      <path id="Path_90" data-name="Path 90" d="M290.29,33.615a7.507,7.507,0,0,0,.234,1.523c.133.515.273,1.1.414,1.765l-2.9-2.483a9.652,9.652,0,0,1-3.748,1.648,7.574,7.574,0,0,1-4.014,0,4.935,4.935,0,0,1-3.545-4.045,5.575,5.575,0,0,1,.125-2.491,5.95,5.95,0,0,1,2.265-3.225c.266-.18.633-.414,1.093-.695s.976-.578,1.562-.914,1.1-.679,1.671-1.046A16.944,16.944,0,0,0,285,22.519a6.8,6.8,0,0,0,1.1-1.148,1.92,1.92,0,0,0,.414-1.1,4.452,4.452,0,0,1,1.32.562,5.21,5.21,0,0,1,1.179.96,6.252,6.252,0,0,1,.851,1.187,2.641,2.641,0,0,1,.336,1.257c.039,1.562.07,3.123.078,4.685S290.251,32.046,290.29,33.615Zm-9.37-14.836a2.391,2.391,0,0,1-.375-.359l-.711-.742c-.273-.273-.531-.562-.781-.851a4.428,4.428,0,0,1-.531-.711,7.179,7.179,0,0,1,.515-.695,11.337,11.337,0,0,1,.781-.882c.312-.351.648-.711,1.023-1.085l1.078,1.054c.289.289.578.586.851.9s.508.57.672.781c-.187.187-.4.414-.64.679s-.476.531-.726.781l-.679.695a4.617,4.617,0,0,1-.453.414Zm4.857,12.666a2.99,2.99,0,0,0,.632-1.242,9.748,9.748,0,0,0,.328-1.734,16.416,16.416,0,0,0,.078-1.858,15.255,15.255,0,0,0-.047-1.562c-.328.226-.781.492-1.257.781s-1.031.664-1.562,1.054-1.085.82-1.624,1.281a9.666,9.666,0,0,0-1.406,1.491,6.052,6.052,0,0,0-.875,1.609,3.171,3.171,0,0,0-.156,1.7,3.9,3.9,0,0,0,1.515.219,7.511,7.511,0,0,0,1.655-.25,7.2,7.2,0,0,0,1.562-.6,4.606,4.606,0,0,0,1.179-.914Zm1.3-12.689a2.39,2.39,0,0,1-.375-.359l-.711-.742c-.265-.273-.531-.562-.781-.851a4.976,4.976,0,0,1-.531-.711c.109-.164.273-.4.515-.695a11.507,11.507,0,0,1,.781-.882c.289-.289.648-.711,1.023-1.085.367.351.734.7,1.085,1.054s.578.586.867.9.515.57.679.781c-.187.187-.406.414-.648.679a10.544,10.544,0,0,1-.781.781l-.679.695a4.613,4.613,0,0,1-.445.437Z" transform="translate(-60.938 -2.907)" fill="#444"/>
      <path id="Path_91" data-name="Path 91" d="M236.713.16h1.054V4.72h2.343V5.751h-3.42Z" transform="translate(-52.183 0.001)" fill="#444"/>
      <path id="Path_92" data-name="Path 92" d="M247.06.16h1.054V5.751H247.06Z" transform="translate(-54.456 0.001)" fill="#444"/>
      <path id="Path_93" data-name="Path 93" d="M254.1.16h1.14l1.124,3.366.2.718h.062l.219-.718L258.082.16h1.14l-2.038,5.591h-1.109Z" transform="translate(-55.998 0.001)" fill="#444"/>
      <path id="Path_94" data-name="Path 94" d="M266.5.16h1.054V5.751H266.5Z" transform="translate(-58.716 0.001)" fill="#444"/>
      <path id="Path_95" data-name="Path 95" d="M274.29.16h1.226l2.249,3.779h.062l-.062-1.078V.16h1.046V5.751H277.7L275.36,1.792H275.3l.063,1.078V5.751h-1.039Z" transform="translate(-60.423 0.001)" fill="#444"/>
      <path id="Path_96" data-name="Path 96" d="M288.994,2.637h2.741a1.5,1.5,0,0,1,.039.226v.265a3.126,3.126,0,0,1-.164,1.015,2.344,2.344,0,0,1-.515.851,2.6,2.6,0,0,1-.9.617A3.045,3.045,0,0,1,289,5.831a2.975,2.975,0,0,1-1.148-.219A2.944,2.944,0,0,1,286.917,5a2.881,2.881,0,0,1-.633-.929,2.841,2.841,0,0,1-.234-1.163,2.907,2.907,0,0,1,.234-1.171A2.866,2.866,0,0,1,287.846.177a3.186,3.186,0,0,1,2.343,0,2.772,2.772,0,0,1,.921.648l-.726.711a1.859,1.859,0,0,0-.609-.445,1.945,1.945,0,0,0-.781-.148,2.03,2.03,0,0,0-.726.133,1.943,1.943,0,0,0-.6.39,1.835,1.835,0,0,0-.414.6,2.188,2.188,0,0,0-.148.781,2.116,2.116,0,0,0,.148.781,1.789,1.789,0,0,0,.414.609,1.983,1.983,0,0,0,1.343.523A1.843,1.843,0,0,0,290.29,4.3a1.164,1.164,0,0,0,.266-.359,1.721,1.721,0,0,0,.18-.476h-1.757Z" transform="translate(-63 0.046)" fill="#444"/>
      <path id="Path_97" data-name="Path 97" d="M140.188,54.828v-3.9H138.86V50.08h3.553v.851h-1.327v3.9Z" transform="translate(-30.575 -10.939)" fill="#444"/>
      <path id="Path_98" data-name="Path 98" d="M146.35,50.08h.89v1.9h2v-1.9h.9v4.748h-.9v-2h-2v2h-.89Z" transform="translate(-32.225 -10.939)" fill="#444"/>
      <path id="Path_99" data-name="Path 99" d="M155.44,50.931v1.1h1.905v.851H155.44v1.1h2.124v.843H154.55V50.08h3.014v.851Z" transform="translate(-34.031 -10.939)" fill="#444"/>
      <path id="Path_100" data-name="Path 100" d="M165.58,50.08h.9v3.9h2.007v.843h-2.9Z" transform="translate(-36.46 -10.939)" fill="#444"/>
      <path id="Path_101" data-name="Path 101" d="M173.5,50.08h1.023l1.78,4.748h-.984l-.4-1.132h-1.812l-.39,1.132h-.992Zm1.132,2.8-.422-1.187-.172-.578h-.055l-.172.578-.43,1.187Z" transform="translate(-37.816 -10.939)" fill="#444"/>
      <path id="Path_102" data-name="Path 102" d="M180.45,50.08h1.039l1.913,3.186h.055l-.055-.906V50.08h.89v4.748h-.945l-2.015-3.358h-.055l.055.914v2.444h-.882Z" transform="translate(-39.736 -10.939)" fill="#444"/>
      <path id="Path_103" data-name="Path 103" d="M188.72,50.08h1.609a2.8,2.8,0,0,1,1.015.172,2.225,2.225,0,0,1,.781.492,2.154,2.154,0,0,1,.492.781,2.92,2.92,0,0,1,0,1.929,2.132,2.132,0,0,1-1.257,1.234,2.8,2.8,0,0,1-1.015.172h-1.609Zm1.562,3.9a2.077,2.077,0,0,0,.687-.109,1.468,1.468,0,0,0,.5-.312,1.3,1.3,0,0,0,.3-.476,2.021,2.021,0,0,0,.1-.633,1.975,1.975,0,0,0-.1-.625,1.328,1.328,0,0,0-.3-.484,1.343,1.343,0,0,0-.5-.3,1.9,1.9,0,0,0-.687-.109h-.672v3.053Z" transform="translate(-41.558 -10.938)" fill="#444"/>
      <path id="Path_104" data-name="Path 104" d="M201,50.08h.9v4.748H201Z" transform="translate(-44.259 -10.939)" fill="#444"/>
      <path id="Path_105" data-name="Path 105" d="M206.813,54.9a2.085,2.085,0,0,1-.586-.086,1.562,1.562,0,0,1-.515-.258,1.943,1.943,0,0,1-.672-1l.843-.336a1.25,1.25,0,0,0,.32.593.828.828,0,0,0,.609.234,1.046,1.046,0,0,0,.273,0,1.078,1.078,0,0,0,.266-.164.5.5,0,0,0,.156-.18.414.414,0,0,0,.062-.242.609.609,0,0,0-.047-.242.508.508,0,0,0-.156-.2,1.164,1.164,0,0,0-.281-.18c-.117-.055-.266-.117-.437-.18l-.289-.109a1.741,1.741,0,0,1-.39-.18,1.71,1.71,0,0,1-.359-.265,1.562,1.562,0,0,1-.258-.375,1.132,1.132,0,0,1-.1-.492,1.186,1.186,0,0,1,.109-.523,1.234,1.234,0,0,1,.312-.422,1.3,1.3,0,0,1,.484-.281,1.781,1.781,0,0,1,.625-.109,1.624,1.624,0,0,1,.617.1,1.342,1.342,0,0,1,.445.242,1.288,1.288,0,0,1,.3.328,1.243,1.243,0,0,1,.164.344l-.781.328a.781.781,0,0,0-.242-.359.7.7,0,0,0-.476-.156.843.843,0,0,0-.484.133.414.414,0,0,0-.2.359.445.445,0,0,0,.187.359,2.03,2.03,0,0,0,.586.289l.3.1a3.123,3.123,0,0,1,.515.226,1.492,1.492,0,0,1,.406.3,1.156,1.156,0,0,1,.258.414,1.476,1.476,0,0,1-.055,1.163,1.414,1.414,0,0,1-.383.445,1.562,1.562,0,0,1-.523.258A2.146,2.146,0,0,1,206.813,54.9Z" transform="translate(-45.152 -10.901)" fill="#444"/>
      <path id="Path_106" data-name="Path 106" d="M216.45,50.08h3.014v.851h-2.116v1.156h1.874v.843h-1.874v1.9h-.9Z" transform="translate(-47.664 -10.939)" fill="#444"/>
      <path id="Path_107" data-name="Path 107" d="M223.311,50.08h.9v3.9h1.976v.843h-2.9Z" transform="translate(-49.169 -10.939)" fill="#444"/>
      <path id="Path_108" data-name="Path 108" d="M232.035,54.906a2.436,2.436,0,0,1-.984-.2,2.4,2.4,0,0,1-1.3-1.312,2.553,2.553,0,0,1-.187-.976,2.514,2.514,0,0,1,.187-.968,2.452,2.452,0,0,1,1.3-1.32,2.6,2.6,0,0,1,1.976,0,2.343,2.343,0,0,1,.781.531,2.288,2.288,0,0,1,.523.781,2.514,2.514,0,0,1,.187.968,2.553,2.553,0,0,1-.187.976,2.342,2.342,0,0,1-.523.781,2.483,2.483,0,0,1-1.773.718Zm0-.851a1.647,1.647,0,0,0,.625-.117,1.374,1.374,0,0,0,.5-.336,1.561,1.561,0,0,0,.344-.508,1.865,1.865,0,0,0,.125-.672,1.827,1.827,0,0,0-.125-.663,1.492,1.492,0,0,0-.344-.516,1.609,1.609,0,0,0-.5-.336,1.7,1.7,0,0,0-1.242,0,1.741,1.741,0,0,0-.508.336,1.562,1.562,0,0,0-.336.515,1.827,1.827,0,0,0-.125.664,1.866,1.866,0,0,0,.125.672,1.64,1.64,0,0,0,.336.507,1.476,1.476,0,0,0,.508.336A1.632,1.632,0,0,0,232.035,54.055Z" transform="translate(-50.554 -10.908)" fill="#444"/>
      <path id="Path_109" data-name="Path 109" d="M240.666,54.937a2.108,2.108,0,0,1-.781-.133,1.694,1.694,0,0,1-.586-.4,1.835,1.835,0,0,1-.367-.625,2.342,2.342,0,0,1-.133-.843V50.08h.937v2.913a1.561,1.561,0,0,0,.063.437.96.96,0,0,0,.18.344.781.781,0,0,0,.3.234,1.008,1.008,0,0,0,.414.078,1.038,1.038,0,0,0,.422-.078.781.781,0,0,0,.3-.234.96.96,0,0,0,.18-.344,1.56,1.56,0,0,0,.055-.437V50.08h.9v2.858a2.428,2.428,0,0,1-.125.781,1.7,1.7,0,0,1-.96,1.039,1.858,1.858,0,0,1-.789.18Z" transform="translate(-52.645 -10.939)" fill="#444"/>
      <path id="Path_110" data-name="Path 110" d="M246.763,50.08H248.5a1.929,1.929,0,0,1,.656.109,1.64,1.64,0,0,1,.5.312,1.421,1.421,0,0,1,.32.476,1.562,1.562,0,0,1,.086.6,1.188,1.188,0,0,1-.078.445,1.429,1.429,0,0,1-.219.383,1.71,1.71,0,0,1-.328.3,1.429,1.429,0,0,1-.39.2v.047l1.281,1.827v.047h-1.046l-1.226-1.78h-.422v1.78h-.9Zm1.741,2.14a.711.711,0,0,0,.508-.18.648.648,0,0,0,.2-.476.664.664,0,0,0-.047-.242.719.719,0,0,0-.125-.211.6.6,0,0,0-.219-.148.718.718,0,0,0-.3-.062h-.843v1.32Z" transform="translate(-54.386 -10.938)" fill="#444"/>
      <path id="Path_111" data-name="Path 111" d="M254.17,50.08h.9v4.748h-.9Z" transform="translate(-56.014 -10.939)" fill="#444"/>
      <path id="Path_112" data-name="Path 112" d="M260.025,54.915a1.991,1.991,0,0,1-.578-.086,1.562,1.562,0,0,1-.515-.258,1.9,1.9,0,0,1-.406-.422,2.07,2.07,0,0,1-.266-.578l.836-.336a1.265,1.265,0,0,0,.328.593.828.828,0,0,0,.609.234,1.046,1.046,0,0,0,.273,0,.874.874,0,0,0,.227-.109.453.453,0,0,0,.164-.18.484.484,0,0,0,.063-.242.61.61,0,0,0-.047-.242.594.594,0,0,0-.156-.2,1.086,1.086,0,0,0-.289-.18c-.117-.055-.258-.117-.429-.18l-.3-.109a1.687,1.687,0,0,1-.383-.18,1.71,1.71,0,0,1-.359-.265,1.389,1.389,0,0,1-.258-.375,1.133,1.133,0,0,1-.1-.492,1.187,1.187,0,0,1,.109-.523,1.289,1.289,0,0,1,.781-.7,1.749,1.749,0,0,1,.625-.109,1.648,1.648,0,0,1,.617.1,1.343,1.343,0,0,1,.445.242,1.453,1.453,0,0,1,.3.328,1.243,1.243,0,0,1,.164.344l-.781.328a.891.891,0,0,0-.242-.359.7.7,0,0,0-.476-.156.89.89,0,0,0-.492.133.429.429,0,0,0-.187.359.445.445,0,0,0,.187.359,1.928,1.928,0,0,0,.586.289l.3.1a2.928,2.928,0,0,1,.523.226,1.625,1.625,0,0,1,.406.3,1.273,1.273,0,0,1,.258.414,1.476,1.476,0,0,1-.055,1.163,1.414,1.414,0,0,1-.383.445,1.64,1.64,0,0,1-.523.258A2.155,2.155,0,0,1,260.025,54.915Z" transform="translate(-56.91 -10.916)" fill="#444"/>
      <path id="Path_113" data-name="Path 113" d="M265.67,50.08h.9v1.9h2v-1.9h.9v4.748h-.9v-2h-2v2h-.9Z" transform="translate(-58.534 -10.939)" fill="#444"/>
      <path id="Path_114" data-name="Path 114" d="M273.876,50.08h.875v4.748h-.89Z" transform="translate(-60.328 -10.939)" fill="#444"/>
      <path id="Path_115" data-name="Path 115" d="M278.37,50.08h1.046l1.905,3.186h.055l-.055-.906V50.08h.89v4.748h-.937l-2.022-3.358H279.2l.055.89V54.8h-.882Z" transform="translate(-61.317 -10.939)" fill="#444"/>
      <path id="Path_116" data-name="Path 116" d="M288.742,52.189h2.343a1.133,1.133,0,0,1,0,.2,2.224,2.224,0,0,1,0,.226,2.577,2.577,0,0,1-.141.859,2.032,2.032,0,0,1-.437.726,2.186,2.186,0,0,1-.781.523,2.584,2.584,0,0,1-1.015.187,2.554,2.554,0,0,1-.976-.187,2.5,2.5,0,0,1-.781-.515,2.486,2.486,0,0,1,0-3.553,2.5,2.5,0,0,1,.781-.515,2.679,2.679,0,0,1,2.007,0,2.344,2.344,0,0,1,.781.547l-.617.609a1.679,1.679,0,0,0-1.819-.39,1.562,1.562,0,0,0-.508.328,1.508,1.508,0,0,0-.351.515,1.688,1.688,0,0,0-.125.672,1.663,1.663,0,0,0,.125.672,1.507,1.507,0,0,0,.351.515,1.609,1.609,0,0,0,.515.328,1.679,1.679,0,0,0,.625.117,1.562,1.562,0,0,0,.64-.109,1.351,1.351,0,0,0,.445-.281,1.053,1.053,0,0,0,.234-.3,1.9,1.9,0,0,0,.148-.406H288.7Z" transform="translate(-63.037 -10.908)" fill="#444"/>
    </g>
  </g>
</svg>
