<svg id="Layer_1" data-name="Layer 1" xmlns="http://www.w3.org/2000/svg" width="295" height="57" viewBox="0 0 295 57">
  <path id="Path_41" data-name="Path 41" d="M66,5H32.6A2.621,2.621,0,0,0,30,7.593V55.939l1.38.715a2.6,2.6,0,0,0,2.54-.067,2.559,2.559,0,0,0,1.25-2.2V10.126H63.42V56.108l1.6.656a2.635,2.635,0,0,0,2.42-.238,2.6,2.6,0,0,0,1.14-2.136V7.593A2.621,2.621,0,0,0,66,5Z" transform="translate(0.012 0.046)" fill="#fff"/>
  <path id="Path_42" data-name="Path 42" d="M60.19,49.55v5.58L38.38,46.17V40.6Z" transform="translate(0.012 -0.302)" fill="#fff"/>
  <path id="Path_43" data-name="Path 43" d="M26.76,41.61H13.07l13.69,7.15v5.83L1.38,41.31a2.58,2.58,0,0,1,1.2-4.87H26.76Z" transform="translate(0.012 -0.302)" fill="#fff"/>
  <path id="Path_44" data-name="Path 44" d="M107,21.05a8.5,8.5,0,0,0-4.86.78,9.63,9.63,0,0,0-3.43,3.11l-.63-.12-.6-.12a2.19,2.19,0,0,0-.11.34.81.81,0,0,0,0,.25L97.45,31l.23,8.69a16.369,16.369,0,0,0,.18,1.76,4.15,4.15,0,0,0,.66,1.65.47.47,0,0,1,0,.22,2.25,2.25,0,0,0,0,.41c-.37-.23-.7-.45-1-.65s-.57-.4-.86-.62a1.2,1.2,0,0,1-.31-.33,1.35,1.35,0,0,0-.28-.3,4.3,4.3,0,0,1-1.87-2.22,9.28,9.28,0,0,1-.51-2.86c-.06-1.9-.1-3.8-.12-5.69s-.07-3.78-.12-5.69a15.351,15.351,0,0,0-.06-1.66c-.06-.55,0-1.15-.06-1.79-.92.14-1.8.3-2.62.5a7.4,7.4,0,0,0-2.33,1,.77.77,0,0,0-.32.4,4.851,4.851,0,0,0-.2.51,7.749,7.749,0,0,0-.1.93c0,.31,0,.62,0,.94,0,2.51,0,5,.08,7.49s.07,5,.12,7.46a3.68,3.68,0,0,0,.3,1.3,11.941,11.941,0,0,1,.45,1.39,2.7,2.7,0,0,0-.43-.12.68.68,0,0,1-.4-.19L86.21,42.1a11.29,11.29,0,0,1-1.5-1.59,2.65,2.65,0,0,1-.52-1.27c-.08-.5-.13-1-.16-1.43-.08-1.5-.12-3-.14-4.48s0-3-.09-4.48a3.46,3.46,0,0,0,0-.43,5.64,5.64,0,0,0-.09-.64,3.72,3.72,0,0,0-1.11,2.86,4.93,4.93,0,0,1-1.91-1.25c-.5-.54-1-1.06-1.54-1.57a1.67,1.67,0,0,1-.58-1.23,2.71,2.71,0,0,1,.38-1.42,13.72,13.72,0,0,1,1.76-2.48,21,21,0,0,1,2.2-2.12,3.13,3.13,0,0,0,.86-1A3.08,3.08,0,0,0,84,18.32a23.584,23.584,0,0,1,.121-2.385c.079-.795.149-1.625.2-2.495a10,10,0,0,1,4,4.44,4.19,4.19,0,0,1,.71-.1,3.48,3.48,0,0,0,.67-.1,3,3,0,0,1,2.06,0,5,5,0,0,1,1.71,1.15c.26.27.51.55.75.85s.51.63.8,1c.29-.27.52-.48.71-.64l.52-.47a7,7,0,0,1,2.16-1.43,8,8,0,0,1,2.47-.64,7.77,7.77,0,0,1,2.54.18,8.7,8.7,0,0,1,2.42,1,14.85,14.85,0,0,1,2.26,1.61,10.51,10.51,0,0,1,1.83,2,5,5,0,0,1,.61,1.19,4.24,4.24,0,0,1,.22,1.35c0,1.72,0,3.42,0,5.11V46.75a6,6,0,0,0,.06.85,4.306,4.306,0,0,0,.14.85,5.53,5.53,0,0,0,1.74,3.41,5.64,5.64,0,0,0,3.69,1.07h.91a5,5,0,0,0,1-.08,8.23,8.23,0,0,0,2.12-.43,5,5,0,0,0,1.85-1.19,1.61,1.61,0,0,1,.32-.32,2.61,2.61,0,0,0,.31-.28c.4-.34.78-.68,1.15-1a6.11,6.11,0,0,0,1-1.13,4.27,4.27,0,0,0,.62-1.37,4.35,4.35,0,0,0,0-1.74,9.48,9.48,0,0,1,2.3,1.7,8.82,8.82,0,0,1,1.5,2.11,2.19,2.19,0,0,1,.2,1.6,4.27,4.27,0,0,1-.67,1.49,14.82,14.82,0,0,1-2.76,2.91,9.32,9.32,0,0,1-3.19,1.67,9.13,9.13,0,0,1-3.59.28,12.2,12.2,0,0,1-3.94-1.25,16.42,16.42,0,0,1-5.12-3.79,13.71,13.71,0,0,1-3-5.65,15.939,15.939,0,0,1-.5-2.72c-.09-.93-.14-1.87-.14-2.79,0-2.06,0-4.13.1-6.19s.12-4.12.14-6.18V21.05Z" transform="translate(0.024 -0.302)" fill="#fff"/>
  <path id="Path_45" data-name="Path 45" d="M123,25.159a1.96,1.96,0,0,1-.38-1.245,2.686,2.686,0,0,1,.46-1.374c.16.128.54.464,1.13.988s1.3,1.2,2.12,1.976,1.7,1.7,2.64,2.708a39.227,39.227,0,0,1,2.64,3.133,28.807,28.807,0,0,1,2.14,3.291,9.808,9.808,0,0,1,1.15,3.133,4.056,4.056,0,0,1-2.74,4.684,12.59,12.59,0,0,1-4.46.86c-1.7.059-3.65.069-5.85,0H120.6a8.3,8.3,0,0,1-1.74-.267,7.511,7.511,0,0,1-1.85-.751,4.046,4.046,0,0,1-1.5-1.482,5.877,5.877,0,0,1-.74-2.51,11.14,11.14,0,0,1,.46-3.765,12,12,0,0,1,1.19-3.192,15.27,15.27,0,0,1,1.94-2.826,15.088,15.088,0,0,1,2.32-2.154A8.475,8.475,0,0,1,123,25.159ZM119.71,14.19l1.39,1.374c.37.366.73.741,1.09,1.136l.85.939c-.24.267-.51.553-.83.88l-1,.988-.88.909a6.736,6.736,0,0,1-.59.563,3.272,3.272,0,0,1-.48-.464c-.26-.287-.56-.613-.91-.988s-.67-.712-1-1.077a5.439,5.439,0,0,1-.67-.9,7.322,7.322,0,0,1,.67-.86q.48-.553,1-1.1c.47-.435.91-.909,1.38-1.4Zm-.67,25a23.27,23.27,0,0,0,2.89.217c1,0,1.91,0,2.8-.079s1.69-.168,2.41-.3a12.917,12.917,0,0,0,1.77-.425,2.725,2.725,0,0,0,1.19-.731,1.968,1.968,0,0,0,.59-1.2,2.8,2.8,0,0,0-.39-1.581,18.717,18.717,0,0,0-1.13-1.976,21.6,21.6,0,0,0-1.29-1.739,7.816,7.816,0,0,0-.87-.988c-.27-.237-.49-.415-.66-.553a1.007,1.007,0,0,0-.53-.208,1.213,1.213,0,0,0-.58.089,5.159,5.159,0,0,0-.73.4,13.861,13.861,0,0,0-3.93,3.864,8.974,8.974,0,0,0-1.52,5.208Zm8.64-25,1.39,1.374c.37.366.73.741,1.09,1.136l.85.939-.81.88-.93.988c-.32.336-.62.632-.9.909a7.772,7.772,0,0,1-.61.563,3.272,3.272,0,0,1-.48-.464l-.89-.988c-.33-.346-.65-.712-1-1.077a8,8,0,0,1-.71-.9,7.323,7.323,0,0,1,.67-.86q.48-.553,1-1.1c.44-.435.88-.909,1.35-1.4Z" transform="translate(0.028 0.046)" fill="#fff"/>
  <path id="Path_46" data-name="Path 46" d="M154.15,24.78a15.14,15.14,0,0,1,3.86-.12,8.58,8.58,0,0,1,2.8.77,6.26,6.26,0,0,1,1.88,1.41,7.33,7.33,0,0,1,1.15,1.71,6.171,6.171,0,0,1,.56,1.72,7.14,7.14,0,0,1,.1,1.45c0,1.77,0,3.2,0,4.28s.05,2,.08,2.88,0,1.66.08,2.47.06,1.84.12,3.06l-1-.2c-.47-.11-1-.23-1.46-.38a7.25,7.25,0,0,1-1.33-.51c-.39-.2-.58-.43-.58-.7,0-1.69-.1-3-.14-4s-.07-1.77-.09-2.36-.05-1.07-.06-1.43,0-.75,0-1.19v-1.7c0-.7,0-1.7-.06-3a7.39,7.39,0,0,0-1.91.14,7.79,7.79,0,0,0-2.43.89,6.92,6.92,0,0,0-2.11,1.83,4.29,4.29,0,0,0-.81,2.89v9.16a4.4,4.4,0,0,1-1.31-.49,5.19,5.19,0,0,1-2.18-2.4,4.18,4.18,0,0,1-.36-1.75c0-1,0-2-.06-3.11s0-2.12,0-3.07V29.34a3.17,3.17,0,0,1-.87-.16,11.8,11.8,0,0,0-1.22-.26,7.7,7.7,0,0,0-1.36-.06,2.48,2.48,0,0,0-1.26.44,2.79,2.79,0,0,0-.93,1.19,5.72,5.72,0,0,0-.35,2.22c0,1.08,0,2.31,0,3.67s0,2.65.06,3.88,0,2.28,0,3.16v1.46a4.45,4.45,0,0,1-1.38-.33,5.3,5.3,0,0,1-1.39-.82,4.63,4.63,0,0,1-1.08-1.27,3.75,3.75,0,0,1-.48-1.74c0-.85,0-1.82,0-2.94V22.2a5.86,5.86,0,0,1,1.31.62,7.09,7.09,0,0,1,1.11.85,12.9,12.9,0,0,1,1,1c.31.34.6.66.9.95a5.73,5.73,0,0,1,3.88-.35,9.71,9.71,0,0,1,3.49,1.9,10.06,10.06,0,0,1,1.71-1.51A5.51,5.51,0,0,1,154.15,24.78Zm10.67,19.63h0Z" transform="translate(0.032 -0.177)" fill="#fff"/>
  <path id="Path_47" data-name="Path 47" d="M171.56,21.09l1.38,1.39c.37.37.74.75,1.11,1.15l.88.95-.84.87a10.486,10.486,0,0,1-1,1,10.153,10.153,0,0,0-.87.9,6.53,6.53,0,0,1-.6.57,3.439,3.439,0,0,1-.47-.45l-.91-1c-.35-.35-.68-.72-1-1.09a6.159,6.159,0,0,1-.67-.91,9.2,9.2,0,0,1,.66-.89,11.414,11.414,0,0,1,1-1.13C170.61,22.08,171.08,21.57,171.56,21.09Zm1.74,18.4a13.3,13.3,0,0,0,2.24,0,2.27,2.27,0,0,0,1.25-.48,2.12,2.12,0,0,0,.63-1.09c.14-.47.28-1.11.44-1.9a5,5,0,0,1,2.5,1.85,5.17,5.17,0,0,1,.85,2.35,4,4,0,0,1-.34,2.11,1.8,1.8,0,0,1-1.07,1.07,23.3,23.3,0,0,1-5.51.49,12,12,0,0,1-2.95-.45A2.21,2.21,0,0,1,169.69,42a9.33,9.33,0,0,1-.32-2.46q0-1.62,0-3.93c-.05-1.66-.07-3.11-.05-4.36a18.145,18.145,0,0,1,.09-2.42c.77.61,1.48,1.2,2.12,1.77a7,7,0,0,1,1.57,2,1.45,1.45,0,0,1,.22.71c0,.27,0,.53,0,.8v5.43Z" transform="translate(0.035 -0.167)" fill="#fff"/>
  <path id="Path_48" data-name="Path 48" d="M188.68,42.35a1.83,1.83,0,0,1-.51,1,1.76,1.76,0,0,1-.87.41,4.16,4.16,0,0,1-1.13.06,7.434,7.434,0,0,1-1.29-.12c0-.21,0-.82.06-1.84s0-2.25,0-3.69V23.31a6.88,6.88,0,0,1,1.52.16,3.46,3.46,0,0,1,1.31.58,2.65,2.65,0,0,1,.91,1.17,4.65,4.65,0,0,1,.34,1.94,12.53,12.53,0,0,1,4.9-1.67,7.55,7.55,0,0,1,3.51.44,4.65,4.65,0,0,1,2.08,1.64,3.57,3.57,0,0,1,.69,1.89q.21,5.11.24,8.62t0,6.05a3.47,3.47,0,0,1-2.14-.85,3.84,3.84,0,0,1-1.15-2.16c-.05-1.32-.08-2.61-.08-3.85V29.54a5.5,5.5,0,0,0-2.14,0,5.83,5.83,0,0,0-2.28.87,3.58,3.58,0,0,0-1.43,1.76,3.19,3.19,0,0,0,.42,2.66,4.27,4.27,0,0,1-1.55-.57,3.58,3.58,0,0,1-1-1.05v5.96a11.115,11.115,0,0,1-.1,1.87,7.83,7.83,0,0,1-.31,1.31Z" transform="translate(0.037 -0.177)" fill="#fff"/>
  <path id="Path_49" data-name="Path 49" d="M212.08,36.32a16,16,0,0,0-2,1.66,4.75,4.75,0,0,0-1.31,2,7.17,7.17,0,0,0,1.7.25c.88.07,1.89.13,3,.18s2.38.09,3.68.1,2.54,0,3.69,0,2.16-.06,3-.12a6.85,6.85,0,0,0,1.68-.23c-1.27-.9-2.39-1.72-3.37-2.46s-2-1.6-3.19-2.56a42.658,42.658,0,0,1-3.25-3,24.78,24.78,0,0,1-2.64-3.15,7,7,0,0,1-1.31-3,2.31,2.31,0,0,1,.34-1.59,2.84,2.84,0,0,1,1.53-.87c2.48-.53,4.57-1,6.26-1.55a39.571,39.571,0,0,0,4.16-1.44,14.27,14.27,0,0,0,2.5-1.31,4.79,4.79,0,0,0,1.23-1.15,2.05,2.05,0,0,0,.38-1,7.051,7.051,0,0,0,0-.82,6.541,6.541,0,0,1,1.35,1.53,7.41,7.41,0,0,1,1,2.16,4.89,4.89,0,0,1,.1,2.24A2.81,2.81,0,0,1,229.29,24a33,33,0,0,1-3.13,1.3c-1.17.43-2.34.82-3.53,1.17s-2.33.68-3.41,1l-2.74.69a11.269,11.269,0,0,0,1.81,1.8c.83.71,1.77,1.46,2.81,2.28s2.14,1.67,3.29,2.54,2.22,1.73,3.19,2.58a31.9,31.9,0,0,1,2.54,2.42,5.45,5.45,0,0,1,1.33,2,1.23,1.23,0,0,1-.48,1.43,5.14,5.14,0,0,1-2.83.59H212.52a16.54,16.54,0,0,1-4.48-.63,7.12,7.12,0,0,1-2.7-1.43,3.54,3.54,0,0,1-1.17-2,5,5,0,0,1,.08-2.26,7.32,7.32,0,0,1,1.05-2.26,11.18,11.18,0,0,1,1.74-2,1.08,1.08,0,0,1,1.25-.22,4.81,4.81,0,0,1,1.31.93q.66.63,1.29,1.35a6.181,6.181,0,0,0,1.19,1.04Z" transform="translate(0.041 -0.145)" fill="#fff"/>
  <path id="Path_50" data-name="Path 50" d="M251.89,40.28a9.61,9.61,0,0,0,.3,1.95c.17.66.35,1.41.53,2.26L249,41.31a12.36,12.36,0,0,1-4.8,2.11,9.7,9.7,0,0,1-5.14,0,6.32,6.32,0,0,1-4.54-5.18,7.14,7.14,0,0,1,.16-3.19,7.62,7.62,0,0,1,2.9-4.13c.34-.23.81-.53,1.4-.89s1.25-.74,2-1.17,1.41-.87,2.14-1.34a21.692,21.692,0,0,0,2-1.45,8.71,8.71,0,0,0,1.41-1.47,2.46,2.46,0,0,0,.53-1.41,5.7,5.7,0,0,1,1.69.72,6.67,6.67,0,0,1,1.51,1.23,8,8,0,0,1,1.09,1.52,3.38,3.38,0,0,1,.43,1.61c.05,2,.09,4,.1,6S251.84,38.27,251.89,40.28Zm-12-19a3.06,3.06,0,0,1-.48-.46l-.91-.95c-.35-.35-.68-.72-1-1.09a5.679,5.679,0,0,1-.68-.91,9.2,9.2,0,0,1,.66-.89,14.516,14.516,0,0,1,1-1.13c.39-.45.83-.91,1.31-1.39l1.38,1.35c.37.37.74.75,1.09,1.15s.65.73.86,1c-.24.24-.51.53-.82.87s-.61.68-.93,1l-.87.89a5.9,5.9,0,0,1-.58.53Zm6.22,16.22a3.83,3.83,0,0,0,.81-1.59,12.478,12.478,0,0,0,.42-2.22,21.008,21.008,0,0,0,.1-2.38,19.522,19.522,0,0,0-.06-2c-.42.29-1,.63-1.61,1s-1.32.85-2,1.35a22.546,22.546,0,0,0-2.08,1.64,12.381,12.381,0,0,0-1.8,1.91,7.75,7.75,0,0,0-1.17,2.08,4.06,4.06,0,0,0-.2,2.18,5,5,0,0,0,1.94.28,9.62,9.62,0,0,0,2.12-.32,9.22,9.22,0,0,0,2-.77,5.9,5.9,0,0,0,1.56-1.19Zm1.59-16.22a3.06,3.06,0,0,1-.48-.46l-.91-.95c-.34-.35-.68-.72-1-1.09a6.371,6.371,0,0,1-.68-.91c.14-.21.35-.51.66-.89a14.727,14.727,0,0,1,1-1.13c.37-.37.83-.91,1.31-1.39.47.45.94.9,1.39,1.35s.74.75,1.11,1.15.66.73.87,1c-.24.24-.52.53-.83.87a13.476,13.476,0,0,1-1,1l-.87.89a5.9,5.9,0,0,1-.54.53Z" transform="translate(0.05 -0.139)" fill="#fff"/>
  <path id="Path_51" data-name="Path 51" d="M272.71,35.72a4.73,4.73,0,0,1-1.15-.39,6.619,6.619,0,0,1-1-.64,4.471,4.471,0,0,1-.83-.79,3.11,3.11,0,0,1-.52-.83c.05-.19.12-.5.22-.94a8.811,8.811,0,0,0,.16-1.46,9.586,9.586,0,0,0-.12-1.67,3.36,3.36,0,0,0-.66-1.52,8.92,8.92,0,0,0-1.94.13,5.029,5.029,0,0,0-3.15,1.93,5.85,5.85,0,0,0-1,2,2.55,2.55,0,0,0,.15,1.67c.24.5.44.89.6,1.18a2.92,2.92,0,0,1-1.61-.41,6.21,6.21,0,0,1-1.29-1.17c0,.34,0,.67,0,1V43.82a5.15,5.15,0,0,1-2.69-1.29,4.65,4.65,0,0,1-1-1.42,4.6,4.6,0,0,1-.42-2.05V27.12c0-1.39,0-3.05.06-4.9a5,5,0,0,1,2.14,1.31,7.159,7.159,0,0,1,1.31,2.42,10.829,10.829,0,0,1,1.84-1.31,10.44,10.44,0,0,1,2.56-1.07,7.25,7.25,0,0,1,3.65,0,5.64,5.64,0,0,1,2.5,1.49A6.94,6.94,0,0,1,272,27.5a14.541,14.541,0,0,1,.76,2.95,18.257,18.257,0,0,1,.18,2.91A14.226,14.226,0,0,1,272.71,35.72Z" transform="translate(0.05 -0.171)" fill="#fff"/>
  <path id="Path_52" data-name="Path 52" d="M294.12,40.28a9.611,9.611,0,0,0,.3,1.95c.17.66.35,1.41.53,2.26l-3.72-3.18a12.36,12.36,0,0,1-4.8,2.11,9.7,9.7,0,0,1-5.14,0,6.32,6.32,0,0,1-4.54-5.18,7.14,7.14,0,0,1,.16-3.19,7.62,7.62,0,0,1,2.9-4.13c.34-.23.81-.53,1.4-.89s1.25-.74,2-1.17,1.41-.87,2.14-1.34a21.691,21.691,0,0,0,2-1.45,8.707,8.707,0,0,0,1.41-1.47,2.46,2.46,0,0,0,.53-1.41,5.7,5.7,0,0,1,1.69.72,6.67,6.67,0,0,1,1.51,1.23,8,8,0,0,1,1.09,1.52,3.38,3.38,0,0,1,.43,1.61c.05,2,.09,4,.1,6S294.07,38.27,294.12,40.28Zm-12-19a3.06,3.06,0,0,1-.48-.46l-.91-.95c-.35-.35-.68-.72-1-1.09a5.679,5.679,0,0,1-.68-.91,9.2,9.2,0,0,1,.66-.89,14.5,14.5,0,0,1,1-1.13c.4-.45.83-.91,1.31-1.39l1.38,1.35c.37.37.74.75,1.09,1.15s.65.73.86,1c-.24.24-.51.53-.82.87s-.61.68-.93,1l-.87.89a5.9,5.9,0,0,1-.58.53Zm6.22,16.22a3.83,3.83,0,0,0,.81-1.59,12.477,12.477,0,0,0,.42-2.22,21,21,0,0,0,.1-2.38,19.522,19.522,0,0,0-.06-2c-.42.29-1,.63-1.61,1s-1.32.85-2,1.35a22.542,22.542,0,0,0-2.08,1.64,12.381,12.381,0,0,0-1.8,1.91A7.75,7.75,0,0,0,281,37.27a4.06,4.06,0,0,0-.2,2.18,5,5,0,0,0,1.94.28,9.62,9.62,0,0,0,2.12-.32,9.22,9.22,0,0,0,2-.77,5.9,5.9,0,0,0,1.51-1.17ZM290,21.25a3.059,3.059,0,0,1-.48-.46l-.91-.95c-.34-.35-.68-.72-1-1.09a6.372,6.372,0,0,1-.68-.91c.14-.21.35-.51.66-.89a14.727,14.727,0,0,1,1-1.13c.37-.37.83-.91,1.31-1.39.47.45.94.9,1.39,1.35s.74.75,1.11,1.15.66.73.87,1c-.24.24-.52.53-.83.87a13.479,13.479,0,0,1-1,1l-.87.89a5.9,5.9,0,0,1-.57.56Z" transform="translate(0.05 -0.139)" fill="#fff"/>
  <path id="Path_53" data-name="Path 53" d="M236.72.16h1.35V6h3V7.32h-4.38Z" transform="translate(0.05 0.046)" fill="#fff"/>
  <path id="Path_54" data-name="Path 54" d="M247.06.16h1.35V7.32h-1.35Z" transform="translate(0.05 0.046)" fill="#fff"/>
  <path id="Path_55" data-name="Path 55" d="M254.1.16h1.46L257,4.47l.26.92h.08l.28-.92L259.2.16h1.46l-2.61,7.16h-1.42Z" transform="translate(0.05 0.046)" fill="#fff"/>
  <path id="Path_56" data-name="Path 56" d="M266.5.16h1.35V7.32H266.5Z" transform="translate(0.05 0.046)" fill="#fff"/>
  <path id="Path_57" data-name="Path 57" d="M274.29.16h1.57L278.74,5h.08l-.08-1.38V.16h1.34V7.32h-1.42l-3-5.07h-.08l.08,1.38V7.32h-1.33Z" transform="translate(0.05 0.046)" fill="#fff"/>
  <path id="Path_58" data-name="Path 58" d="M289.82,3.39h3.51a1.917,1.917,0,0,1,.05.29v.34a4,4,0,0,1-.21,1.3,3,3,0,0,1-.66,1.09,3.33,3.33,0,0,1-1.15.79,3.9,3.9,0,0,1-1.53.28,3.81,3.81,0,0,1-1.47-.28,3.77,3.77,0,0,1-1.2-.78,3.689,3.689,0,0,1-.81-1.19,3.639,3.639,0,0,1-.3-1.49,3.721,3.721,0,0,1,.3-1.5,3.67,3.67,0,0,1,2-2,4.08,4.08,0,0,1,3,0,3.55,3.55,0,0,1,1.18.83l-.93.91a2.38,2.38,0,0,0-.78-.57,2.49,2.49,0,0,0-1-.19,2.6,2.6,0,0,0-.93.17,2.49,2.49,0,0,0-.77.5,2.35,2.35,0,0,0-.53.77,2.8,2.8,0,0,0-.19,1,2.71,2.71,0,0,0,.19,1,2.29,2.29,0,0,0,.53.78,2.54,2.54,0,0,0,1.72.67,2.36,2.36,0,0,0,1.64-.59,1.49,1.49,0,0,0,.34-.46,2.209,2.209,0,0,0,.23-.61H289.8Z" transform="translate(0.05 0.046)" fill="#fff"/>
  <path id="Path_59" data-name="Path 59" d="M140.56,57.16v-5h-1.7V51.08h4.55v1.09h-1.7v5Z" transform="translate(0.03 -0.302)" fill="#fff"/>
  <path id="Path_60" data-name="Path 60" d="M146.35,51.08h1.14v2.43h2.56V51.08h1.15v6.08h-1.15V54.6h-2.56v2.56h-1.14Z" transform="translate(0.031 -0.302)" fill="#fff"/>
  <path id="Path_61" data-name="Path 61" d="M155.69,52.17v1.41h2.44v1.09h-2.44v1.41h2.72v1.08h-3.86V51.08h3.86v1.09Z" transform="translate(0.032 -0.302)" fill="#fff"/>
  <path id="Path_62" data-name="Path 62" d="M165.58,51.08h1.15v5h2.57v1.08h-3.72Z" transform="translate(0.034 -0.302)" fill="#fff"/>
  <path id="Path_63" data-name="Path 63" d="M174,51.08h1.31l2.28,6.08h-1.26l-.51-1.45H173.5l-.5,1.45h-1.27Zm1.45,3.58-.54-1.52-.22-.74h-.07l-.22.74-.55,1.52Z" transform="translate(0.035 -0.302)" fill="#fff"/>
  <path id="Path_64" data-name="Path 64" d="M180.45,51.08h1.33l2.45,4.08h.07L184.23,54V51.08h1.14v6.08h-1.21l-2.58-4.3h-.07l.07,1.17v3.13h-1.13Z" transform="translate(0.036 -0.302)" fill="#fff"/>
  <path id="Path_65" data-name="Path 65" d="M188.72,51.08h2.06a3.58,3.58,0,0,1,1.3.22,2.85,2.85,0,0,1,1,.63,2.76,2.76,0,0,1,.63,1,3.74,3.74,0,0,1,0,2.47,2.73,2.73,0,0,1-1.61,1.58,3.58,3.58,0,0,1-1.3.22h-2.06Zm2,5a2.66,2.66,0,0,0,.88-.14,1.88,1.88,0,0,0,.64-.4,1.66,1.66,0,0,0,.38-.61,2.59,2.59,0,0,0,.13-.81,2.53,2.53,0,0,0-.13-.8,1.7,1.7,0,0,0-.38-.62,1.72,1.72,0,0,0-.64-.39,2.43,2.43,0,0,0-.88-.14h-.86v3.91Z" transform="translate(0.037 -0.302)" fill="#fff"/>
  <path id="Path_66" data-name="Path 66" d="M201,51.08h1.15v6.08H201Z" transform="translate(0.038 -0.302)" fill="#fff"/>
  <path id="Path_67" data-name="Path 67" d="M207.31,57.3a2.67,2.67,0,0,1-.75-.11,2,2,0,0,1-.66-.33,2.489,2.489,0,0,1-.86-1.28l1.08-.43a1.6,1.6,0,0,0,.41.76,1.06,1.06,0,0,0,.78.3,1.34,1.34,0,0,0,.35,0A1.38,1.38,0,0,0,208,56a.64.64,0,0,0,.2-.23.53.53,0,0,0,.08-.31.78.78,0,0,0-.06-.31.65.65,0,0,0-.2-.25,1.49,1.49,0,0,0-.36-.23c-.15-.07-.34-.15-.56-.23l-.37-.14a2.23,2.23,0,0,1-.5-.23,2.19,2.19,0,0,1-.46-.34,2,2,0,0,1-.33-.48,1.45,1.45,0,0,1-.13-.63,1.52,1.52,0,0,1,.14-.67,1.58,1.58,0,0,1,.4-.54,1.66,1.66,0,0,1,.62-.36,2.28,2.28,0,0,1,.8-.14,2.08,2.08,0,0,1,.79.13,1.72,1.72,0,0,1,.57.31,1.65,1.65,0,0,1,.38.42,1.59,1.59,0,0,1,.21.44l-1,.42a1,1,0,0,0-.31-.46.9.9,0,0,0-.61-.2,1.08,1.08,0,0,0-.62.17.53.53,0,0,0-.25.46.57.57,0,0,0,.24.46,2.6,2.6,0,0,0,.75.37l.39.13a4,4,0,0,1,.66.29,1.91,1.91,0,0,1,.52.39,1.48,1.48,0,0,1,.33.53,1.89,1.89,0,0,1-.07,1.49,1.81,1.81,0,0,1-.49.57,2,2,0,0,1-.67.33,2.75,2.75,0,0,1-.78.14Z" transform="translate(0.039 -0.302)" fill="#fff"/>
  <path id="Path_68" data-name="Path 68" d="M216.45,51.08h3.86v1.09H217.6v1.48H220v1.08h-2.4v2.43h-1.15Z" transform="translate(0.04 -0.302)" fill="#fff"/>
  <path id="Path_69" data-name="Path 69" d="M223.32,51.08h1.15v5H227v1.08h-3.72Z" transform="translate(0.041 -0.302)" fill="#fff"/>
  <path id="Path_70" data-name="Path 70" d="M232.73,57.3a3.12,3.12,0,0,1-1.26-.25,3.08,3.08,0,0,1-1.67-1.68,3.27,3.27,0,0,1-.24-1.25,3.22,3.22,0,0,1,.24-1.24,3.14,3.14,0,0,1,1.67-1.69,3.33,3.33,0,0,1,2.53,0,3,3,0,0,1,1,.68,2.93,2.93,0,0,1,.67,1,3.22,3.22,0,0,1,.24,1.24,3.27,3.27,0,0,1-.24,1.25,3,3,0,0,1-.67,1,3.18,3.18,0,0,1-2.27.92Zm0-1.09a2.11,2.11,0,0,0,.8-.15,1.76,1.76,0,0,0,.64-.43,2,2,0,0,0,.44-.65,2.389,2.389,0,0,0,.16-.86,2.339,2.339,0,0,0-.16-.85,1.91,1.91,0,0,0-.44-.66,2.06,2.06,0,0,0-.64-.43,2.18,2.18,0,0,0-1.59,0,2.23,2.23,0,0,0-.65.43,2,2,0,0,0-.43.66,2.34,2.34,0,0,0-.16.85,2.39,2.39,0,0,0,.16.86,2.1,2.1,0,0,0,.43.65,1.89,1.89,0,0,0,.65.43,2.09,2.09,0,0,0,.79.15Z" transform="translate(0.042 -0.302)" fill="#fff"/>
  <path id="Path_71" data-name="Path 71" d="M241.19,57.3a2.7,2.7,0,0,1-1-.17,2.17,2.17,0,0,1-.75-.51,2.35,2.35,0,0,1-.47-.8,3,3,0,0,1-.17-1.08V51.08H240v3.73a2,2,0,0,0,.08.56,1.23,1.23,0,0,0,.23.44,1,1,0,0,0,.38.3,1.29,1.29,0,0,0,.53.1,1.33,1.33,0,0,0,.54-.1,1,1,0,0,0,.38-.3,1.23,1.23,0,0,0,.23-.44,2,2,0,0,0,.07-.56V51.08h1.15v3.66a3.11,3.11,0,0,1-.16,1,2.17,2.17,0,0,1-1.23,1.33,2.38,2.38,0,0,1-1.01.23Z" transform="translate(0.05 -0.302)" fill="#fff"/>
  <path id="Path_72" data-name="Path 72" d="M246.77,51.08H249a2.47,2.47,0,0,1,.84.14,2.1,2.1,0,0,1,.64.4,1.82,1.82,0,0,1,.41.61A2,2,0,0,1,251,53a1.52,1.52,0,0,1-.1.57,1.83,1.83,0,0,1-.28.49,2.191,2.191,0,0,1-.42.38,1.83,1.83,0,0,1-.5.26v.06l1.64,2.34v.06H250l-1.57-2.28h-.54v2.28h-1.15ZM249,53.82a.91.91,0,0,0,.65-.23.83.83,0,0,0,.25-.61.85.85,0,0,0-.06-.31.92.92,0,0,0-.16-.27.77.77,0,0,0-.28-.19.92.92,0,0,0-.38-.08h-1.08v1.69Z" transform="translate(0.05 -0.302)" fill="#fff"/>
  <path id="Path_73" data-name="Path 73" d="M254.17,51.08h1.15v6.08h-1.15Z" transform="translate(0.05 -0.302)" fill="#fff"/>
  <path id="Path_74" data-name="Path 74" d="M260.52,57.3a2.55,2.55,0,0,1-.74-.11,2,2,0,0,1-.66-.33,2.431,2.431,0,0,1-.52-.54,2.65,2.65,0,0,1-.34-.74l1.07-.43a1.62,1.62,0,0,0,.42.76,1.06,1.06,0,0,0,.78.3,1.34,1.34,0,0,0,.35,0,1.12,1.12,0,0,0,.29-.14.58.58,0,0,0,.21-.23.62.62,0,0,0,.08-.31.78.78,0,0,0-.06-.31.761.761,0,0,0-.2-.25,1.39,1.39,0,0,0-.37-.23c-.15-.07-.33-.15-.55-.23l-.38-.14a2.16,2.16,0,0,1-.49-.23,2.19,2.19,0,0,1-.46-.34,1.78,1.78,0,0,1-.33-.48,1.45,1.45,0,0,1-.13-.63,1.52,1.52,0,0,1,.14-.67,1.65,1.65,0,0,1,1-.9,2.24,2.24,0,0,1,.8-.14,2.11,2.11,0,0,1,.79.13,1.72,1.72,0,0,1,.57.31,1.86,1.86,0,0,1,.38.42,1.59,1.59,0,0,1,.21.44l-1,.42a1.14,1.14,0,0,0-.31-.46.9.9,0,0,0-.61-.2,1.14,1.14,0,0,0-.63.17.55.55,0,0,0-.24.46.57.57,0,0,0,.24.46,2.47,2.47,0,0,0,.75.37l.38.13a3.749,3.749,0,0,1,.67.29,2.08,2.08,0,0,1,.52.39,1.63,1.63,0,0,1,.33.53,1.89,1.89,0,0,1-.07,1.49,1.81,1.81,0,0,1-.49.57,2.1,2.1,0,0,1-.67.33A2.76,2.76,0,0,1,260.52,57.3Z" transform="translate(0.05 -0.302)" fill="#fff"/>
  <path id="Path_75" data-name="Path 75" d="M265.67,51.08h1.15v2.43h2.56V51.08h1.15v6.08h-1.15V54.6h-2.56v2.56h-1.15Z" transform="translate(0.05 -0.302)" fill="#fff"/>
  <path id="Path_76" data-name="Path 76" d="M273.88,51.08H275v6.08h-1.14Z" transform="translate(0.05 -0.302)" fill="#fff"/>
  <path id="Path_77" data-name="Path 77" d="M278.37,51.08h1.34l2.44,4.08h.07L282.15,54V51.08h1.14v6.08h-1.2l-2.59-4.3h-.07L279.5,54v3.13h-1.13Z" transform="translate(0.05 -0.302)" fill="#fff"/>
  <path id="Path_78" data-name="Path 78" d="M289.45,53.82h3a1.449,1.449,0,0,1,0,.25,2.837,2.837,0,0,1,0,.29,3.3,3.3,0,0,1-.18,1.1,2.6,2.6,0,0,1-.56.93,2.8,2.8,0,0,1-1,.67,3.31,3.31,0,0,1-1.3.24,3.27,3.27,0,0,1-1.25-.24,3.2,3.2,0,0,1-1-.66,3.184,3.184,0,0,1,0-4.55,3.2,3.2,0,0,1,1-.66,3.43,3.43,0,0,1,2.57,0,3,3,0,0,1,1,.7l-.79.78a2.15,2.15,0,0,0-2.33-.5,2,2,0,0,0-.65.42,1.93,1.93,0,0,0-.45.66,2.16,2.16,0,0,0-.16.86,2.13,2.13,0,0,0,.16.86,1.93,1.93,0,0,0,.45.66,2.059,2.059,0,0,0,.66.42,2.15,2.15,0,0,0,.8.15,2,2,0,0,0,.82-.14,1.73,1.73,0,0,0,.57-.36,1.35,1.35,0,0,0,.3-.39,2.442,2.442,0,0,0,.19-.52h-1.91Z" transform="translate(0.05 -0.302)" fill="#fff"/>
</svg>
