<svg width="24" height="24" viewBox="0 0 24 24" fill="none" xmlns="http://www.w3.org/2000/svg">
<path d="M14.9381 6C15.9149 6.19057 16.8125 6.66826 17.5162 7.37194C18.2199 8.07561 18.6976 8.97326 18.8881 9.95M14.9381 2C16.9674 2.22544 18.8597 3.13417 20.3044 4.57701C21.749 6.01984 22.6601 7.91101 22.8881 9.94M21.8881 17.92V20.92C21.8892 21.1985 21.8322 21.4742 21.7206 21.7293C21.6091 21.9845 21.4454 22.2136 21.2402 22.4019C21.035 22.5901 20.7927 22.7335 20.5289 22.8227C20.265 22.9119 19.9855 22.9451 19.7081 22.92C16.631 22.5856 13.6751 21.5341 11.0781 19.85C8.66194 18.3147 6.61345 16.2662 5.07812 13.85C3.38809 11.2412 2.33636 8.27099 2.00812 5.18C1.98313 4.90347 2.01599 4.62476 2.10462 4.36162C2.19324 4.09849 2.33569 3.85669 2.52288 3.65162C2.71008 3.44655 2.93792 3.28271 3.19191 3.17052C3.44589 3.05833 3.72046 3.00026 3.99812 3H6.99812C7.48342 2.99522 7.95391 3.16708 8.32188 3.48353C8.68985 3.79999 8.93019 4.23945 8.99812 4.72C9.12474 5.68007 9.35957 6.62273 9.69812 7.53C9.83266 7.88792 9.86178 8.27691 9.78202 8.65088C9.70227 9.02485 9.51698 9.36811 9.24812 9.64L7.97812 10.91C9.40167 13.4135 11.4746 15.4864 13.9781 16.91L15.2481 15.64C15.52 15.3711 15.8633 15.1858 16.2372 15.1061C16.6112 15.0263 17.0002 15.0555 17.3581 15.19C18.2654 15.5286 19.2081 15.7634 20.1681 15.89C20.6539 15.9585 21.0975 16.2032 21.4146 16.5775C21.7318 16.9518 21.9003 17.4296 21.8881 17.92Z" stroke="white" stroke-width="2" stroke-linecap="round" stroke-linejoin="round"/>
</svg>
