<svg xmlns="http://www.w3.org/2000/svg" width="30" height="30" viewBox="0 0 30 30">
  <path id="Icon_ionic-ios-paper-plane" data-name="Icon ionic-ios-paper-plane" d="M32.518,3.447,3.685,19.047a.6.6,0,0,0,.043,1.075l4.918,1.854a1.163,1.163,0,0,1,.649.606l3.822,7.868c.072.346.714.44.721.087l-.584-6.505a2.318,2.318,0,0,1,.526-1.313L28.732,8.07a.361.361,0,0,1,.325-.094.342.342,0,0,1,.188.548L16.356,24.29a2.882,2.882,0,0,0-.5,1.3l-.772,5.618c.065.49.447.678.757.238l2.777-3.26a.581.581,0,0,1,.815-.137l7.154,5.214a.577.577,0,0,0,.909-.353L33.362,4.1A.585.585,0,0,0,32.518,3.447Z" transform="translate(-3.376 -3.376)" fill="#fff"/>
</svg>
