<svg xmlns="http://www.w3.org/2000/svg" width="52" height="58" viewBox="0 0 52 58">
  <g id="ic_safety" transform="translate(-155.951 -144)">
    <g id="Path_4" data-name="Path 4" fill="none" stroke-linecap="round" stroke-linejoin="round">
      <path d="M207.826,154.546s3.443,41.022-25.875,47.454c-29.319-6.432-25.875-47.454-25.875-47.454L181.951,144Z" stroke="none"/>
      <path d="M 181.9506225585938 147.2396087646484 L 158.9798736572266 156.6018829345703 C 158.8856964111328 159.9409332275391 158.9593048095703 167.45068359375 160.9620361328125 175.2637634277344 C 162.4926452636719 181.2349243164062 164.8360900878906 186.2114562988281 167.9272766113281 190.0550842285156 C 169.7162322998047 192.2794799804688 171.7834777832031 194.1480407714844 174.0716400146484 195.6088409423828 C 176.4181518554688 197.1069183349609 179.0660705566406 198.2197265625 181.9506225585938 198.9210510253906 C 184.8351745605469 198.2197265625 187.4830932617188 197.1069183349609 189.8296051025391 195.6088409423828 C 192.1177520751953 194.1480407714844 194.1850128173828 192.2794799804688 195.9739532470703 190.0550842285156 C 199.0651397705078 186.2114562988281 201.4085845947266 181.2349243164062 202.9391937255859 175.2637634277344 C 204.9421081542969 167.4500427246094 205.0155334472656 159.9395446777344 204.9214019775391 156.6018981933594 L 181.9506225585938 147.2396087646484 M 181.9506225585938 144 L 207.8260345458984 154.546142578125 C 207.8260345458984 154.546142578125 211.2693481445312 195.5681915283203 181.9506225585938 201.9999847412109 C 152.6318969726562 195.5681915283203 156.0751953125 154.546142578125 156.0751953125 154.546142578125 L 181.9506225585938 144 Z" stroke="none" fill="#579ea6"/>
    </g>
    <path id="Path_5" data-name="Path 5" d="M216.2,223.03l6.8,7.638,18.63-15.4" transform="translate(-46.963 -52.971)" fill="none" stroke="#579ea6" stroke-linecap="round" stroke-linejoin="round" stroke-width="3"/>
  </g>
</svg>
