<svg width="70" height="72" viewBox="0 0 70 72" fill="none" xmlns="http://www.w3.org/2000/svg">
<path d="M46.6667 62.8478V56.946C46.6667 53.8155 45.4376 50.8132 43.2497 48.5996C41.0617 46.386 38.0943 45.1425 35.0001 45.1425H14.5834C11.4892 45.1425 8.52176 46.386 6.33384 48.5996C4.14591 50.8132 2.91675 53.8155 2.91675 56.946V62.8478" stroke="#9A2A23" stroke-width="5" stroke-linecap="round" stroke-linejoin="round"/>
<path d="M24.7917 33.3389C31.235 33.3389 36.4583 28.0542 36.4583 21.5353C36.4583 15.0163 31.235 9.73169 24.7917 9.73169C18.3483 9.73169 13.125 15.0163 13.125 21.5353C13.125 28.0542 18.3483 33.3389 24.7917 33.3389Z" stroke="#9A2A23" stroke-width="5" stroke-linecap="round" stroke-linejoin="round"/>
<path d="M49.5833 33.3389L55.4166 39.2407L67.0833 27.4371" stroke="#9A2A23" stroke-width="5" stroke-linecap="round" stroke-linejoin="round"/>
</svg>
